<?xml version="1.0" encoding="UTF-8"?><svg id="a" xmlns="http://www.w3.org/2000/svg" width="614" height="614" viewBox="0 0 614 614"><path d="M447.06,159.19c-22.93-.5-40.14,6.4-55.43,21.23,0,0,.02-35.82,0-68.84v-56.8c0-1.98-1.61-3.59-3.59-3.59h-67.19c-1.98,0-3.59,1.61-3.59,3.59v4.1c-.09.56-.12,1.75-.12,2.07l.12,156.62v163.87c0,1.98,1.61,3.59,3.59,3.59h67.19c1.98,0,3.59-1.61,3.59-3.59v-49.1c.03-35,.07-75.56.07-75.56.74-26.19,26.54-35.13,48.71-27.52,10.83,3.75,16,15.34,17.94,27v127.35c0,.78,1.61,1.42,3.59,1.42h67.19c1.98,0,3.59-.64,3.59-1.42v-129.15c-.1-49.78-31.37-94.11-85.66-95.29Z"/><path d="M291.24,435.59l-61.21-.15c-1.65,0-3.09,1.11-3.49,2.71l-1.39,25.7c-1.17,12.09-8.86,23.09-20.47,25.78-18.8,4.37-41.25.37-47.89-20.09-5.79-17.83.23-40.73,17.06-49.27,7.71-3.91,16.69-5.03,24.23-5.01l94.84.19c1.99,0,3.6-1.61,3.6-3.6l-.05-23.49v-228.61c0-3.81-4.75-9.17-8.14-9.15l-41.34.2c-18.96,0-39.54,14.5-39.54,38.02,0,5.67-.26,131.34-.31,154.16,0,1.96-1.58,3.55-3.54,3.58-3.19.05-7.39.11-7.39.11-80.83-2.69-127.64,59.2-111.92,136.76,15.27,82.81,133.35,105.58,187.36,46.38,13.72-14.86,21.65-33.4,24.24-53.92.64-5.07,4.21-40.22-4.66-40.31Z"/><rect x="210.58" y="51" width="82.6" height="82.6" rx="5.64" ry="5.64"/></svg>