<?xml version="1.0" encoding="UTF-8"?>
<svg xmlns="http://www.w3.org/2000/svg" version="1.1" xmlns:xlink="http://www.w3.org/1999/xlink" viewBox="0 0 191 174">
  <defs>
    <style>
      .cls-1 {
        fill: #c7c7c7;
        stroke: url(#linear-gradient);
      }

      .cls-1, .cls-2, .cls-3 {
        stroke-miterlimit: 10;
      }

      .cls-2 {
        stroke: #edcd80;
      }

      .cls-2, .cls-3 {
        fill: none;
      }

      .cls-4 {
        fill: #2a454e;
      }

      .cls-5 {
        fill: #1e3135;
      }

      .cls-6 {
        fill: #fff8ea;
      }

      .cls-7 {
        fill: #d5d5d4;
      }

      .cls-8 {
        fill: #edcd80;
      }

      .cls-9 {
        fill: #a37a23;
      }

      .cls-10 {
        fill: #fff3d7;
      }

      .cls-11 {
        fill: #fac70f;
      }

      .cls-3 {
        stroke: #dfb491;
      }
    </style>
    <linearGradient id="linear-gradient" x1="28.9" y1="125.34" x2="111.65" y2="125.34" gradientUnits="userSpaceOnUse">
      <stop offset="0" stop-color="#fff"/>
      <stop offset="1" stop-color="#000"/>
    </linearGradient>
  </defs>
  <!-- Generator: Adobe Illustrator 28.7.8, SVG Export Plug-In . SVG Version: 1.2.0 Build 200)  -->
  <g>
    <g id="Layer_1">
      <polygon class="cls-10" points="92.94 118.64 90.2 124.57 89.68 129.92 107.75 127.25 110.49 121.31 112.12 116.05 109.9 111.44 92.94 118.64"/>
      <polygon class="cls-9" points="86 114.81 79.78 125.3 104.97 133.91 116.34 127.81 107.54 112.22 86 114.81"/>
      <polyline class="cls-10" points="39.12 160.64 88.07 163.26 111.66 152.5 148.72 165.41 181.26 165.41 184.72 143.31 170.19 130.2 154.57 131.76 139.84 128.41 165.35 110.22 166.61 72.06 179.04 52.1 166.18 30.11 143.63 14.96 112.91 3.61 73.19 11.44 43.85 21.88 34.5 36.92 20.72 55.18"/>
      <polyline class="cls-10" points="20.72 55.18 29.15 71.11 25.06 89.11 8.21 110.22 9.85 131.18 19.9 148.25 39.12 160.64"/>
      <polygon class="cls-6" points="61.7 24.18 35.85 45.99 37.95 54.86 45.98 63.12 73.51 72 109.07 73.77 128.15 71 151.7 64.7 163.7 53.03 168.12 40.12 155.93 33.27 142.92 21.92 128.93 13.31 109.07 8.62 84.19 14.09 74.21 14.9 65.53 13.7 61.7 24.18"/>
      <path class="cls-9" d="M122.64,99.89s.06.88.17,2.19c.28,3.33.87,9.46,1.58,11.06.99,2.23-7.17,21.51-7.17,21.51l5.43.23,7.3-8.84-.11-6.2"/>
      <polygon class="cls-4" points="104.02 133.88 104.32 144.97 115.23 147.21 138.35 151.95 163 156.88 178.75 154.81 176.02 145.38 173.24 140.83 125.3 133.88 104.02 133.88"/>
      <polygon class="cls-8" points="41.06 72.54 62.39 81.55 119.94 84.51 144.69 78.53 163.28 72.67 158.61 99.15 146.17 107.42 132.14 112.22 47.15 103.29 42.13 92.38 41.06 72.54"/>
      <polygon class="cls-10" points="33.08 96.26 21.84 114.81 31.73 130.78 44.04 139.38 59.7 141.08 73.51 127.81 65.53 117.38 62.91 105.58 69.61 103.98 61.85 84.51 36.44 90.88 33.08 96.26"/>
      <polygon class="cls-10" points="63.77 14.86 36.44 36.73 44.04 55.96 86.53 72.54 160.46 61.12 170.86 39.24 129.27 11.25 73.51 13.42 63.77 14.86"/>
      <path class="cls-3" d="M40.74,42.81c-2.06,5.5-3.44,0,.77,13.28,0,0,28.35,35.05,116.76,3.21,0,0,13.25-11.27-1.62-20.07"/>
      <polyline class="cls-3" points="47.15 40.97 48.99 49.69 57.19 55.96 71.18 61.12 76.56 61.12"/>
      <polyline class="cls-3" points="38.77 112.39 46.93 112.23 49.3 117.38"/>
      <polygon class="cls-10" points="69.61 86.8 73.51 101.28 86.53 109.17 90 112.23 111.25 113.81 111.25 123.07 119.94 117.38 116.34 99.15 101.57 89.44 83.08 84.51 69.61 86.8"/>
      <polyline class="cls-3" points="116.34 97.11 110.5 94.46 96.62 97.11 88.74 101.28 88.48 107.42 91.37 109.17"/>
      <polyline class="cls-3" points="94.12 114.81 90 112.23 96.62 107.42 102.41 101.81 110.5 99.15 116.34 101.81 119.94 112.23 119.94 119.21 112.79 125.3"/>
      <polyline class="cls-3" points="59.7 139.38 47.15 139.38 38.77 133.91 44.04 125.3"/>
      <polyline class="cls-7" points="73.51 125.3 73.51 123.07 63.77 117.38 57.55 121.07"/>
      <polyline class="cls-10" points="57.55 107.42 65.86 112.23 63.77 117.38"/>
      <polyline class="cls-10" points="69.55 19.78 59.64 37.58 69.55 54.72 137.09 56.55 147.66 38.17 136.31 30.54 116.28 26.04 85.63 21.42 70.37 19.78"/>
      <polyline class="cls-9" points="28.71 96.76 18.06 117.04 23.22 127.69 34.6 141.08 47.67 145.02 62.91 146.82 86 146.82 102.41 145.38 109.81 149 71.54 157.82 44.52 153.81 25.28 139.38 15.66 122.88 17.72 103.64"/>
      <polyline class="cls-11" points="108.44 149 109.07 146.67 102.41 145.38"/>
      <path class="cls-2" d="M41.06,64.7s20.86,12.4,58.9,13.98c0,0,35,2.75,63.33-13.98"/>
      <polygon class="cls-9" points="69.02 114.81 73.51 112.8 82.02 116.64 82.55 112.8 76.56 107.42 69.61 109.17 65.86 112.23 69.02 114.81"/>
      <polyline class="cls-3" points="33.18 105.36 25.96 105.36 22.65 114.13 23.9 122.45 26.95 128.11 33.18 132.16 40.76 132.16"/>
      <polygon class="cls-10" points="43.24 41.9 43.24 49.7 52.04 59.09 75.52 64.7 80.61 63.12 52.95 47.36 50.86 38.55 43.24 41.9"/>
      <polygon class="cls-6" points="95.44 67.61 120.61 69.17 135.86 65.59 152.36 58.02 153.59 43.54 137.81 56.84 97.9 64.01 95.44 67.61"/>
      <path class="cls-6" d="M93.94,34.58"/>
      <polyline class="cls-3" points="69.61 20.82 61.7 39.24 69.61 51.43 89.28 58.96 112.79 61.12 132.49 55.96 139.87 47.13 142.92 39.24"/>
      <polyline class="cls-3" points="95.46 64.7 116.72 64.7 128.71 61.37 146.76 55.96 151.7 43.54"/>
      <polygon class="cls-10" points="61.92 90.88 67.89 84.51 78.65 90.88 76.56 101.28 66.77 105.36 61.92 90.88"/>
      <polyline class="cls-3" points="84.2 24.18 91.37 34.94 99.37 40.97 112.79 44.98 124.25 44.98 130.88 39.24 126.65 37.31 130.88 30.64"/>
      <polyline class="cls-3" points="91.37 28.72 102.31 31.71 114.92 31.71 121.38 30.22 126.76 24.18"/>
      <path class="cls-3" d="M86.95,24.18l11.25-3.36s8.1.61,9.34,1.68,3.71,6.22,3.71,6.22"/>
      <polyline class="cls-3" points="88.48 84.51 94.12 87.29 98.78 90.88 98.2 94.82 90 95.54 85.46 96.61 79.42 101.28 76.56 99.15 73.51 95.54 69.61 90.88 69.61 86.8 79.42 84.51"/>
      <polyline class="cls-3" points="44.04 87.65 53.96 84.51 61.85 84.51 57.55 90.88 61.7 99.15"/>
      <polyline class="cls-3" points="38.77 90.88 35.85 96.61 42.8 103.29 47.15 103.29 51.05 107.42 62.91 105.58 65.86 102.35"/>
      <path class="cls-5" d="M106.58,142.23l25.35,4.44,25.06,6.91,13.53-1.17,4.52-1.17,4.25,4.07-10.99,4.15s-15.12,1.37-15.77,0-24.65-7.52-24.65-7.52l-19.75-1.68-5.73-3.54,4.18-4.48Z"/>
      <path class="cls-3" d="M47.27,35.6c-.17.1-.28.07-.71.33-.54.32-1.06.64-1.56.95-22.12,13.89-7.01,22.43-7.01,22.43l3.44,24.74s-19.24,13.75-21.31,19.93c-1.72,5.15-2.2,7.63-2.06,13.06s5.41,17.53,8.93,21.31c4.69,5.02,16.77,12.52,23.37,14.43,5.14,1.49,22.68,2.06,22.68,2.06,0,0,20.62,2.75,32.99-6.19,2.18-1.57,5.5-3.44,5.5-3.44,0,0,39.86,8.93,54.13,11.91,3.24.68,5.31,1.35,7.73-.92,1.8-1.68,1.91-7.49.69-9.62s-2.35-2.83-4.81-3.44c-11.99-2.95-47.42-6.87-47.42-6.87,0,0,3.44-2.75,8.93-17.18,3.01-.25,23.37-6.19,26.12-13.75s8.25-44.67,8.25-44.67c.85-3.28,5.5-4.12,4.81-10.31-.75-5.45-12.66-12.67-17.18-15.81-5.19-3.61-12.97-14.22-18.56-17.18-4.17-2.21-11.68-2.06-14.43-4.81-2.75-2.75-19.93-.69-25.43,1.37s-8,4.67-11,4.81c-4.49.21-14.21-4.67-17.87-2.06-1.29.92-.69,4.76-1.37,6.19-2.29,4.75-12.28,10.07-16.84,12.71Z"/>
      <polyline class="cls-3" points="88.48 130.78 88.21 121.51 96.03 114.81 107.54 112.22 113.59 114.81 113.59 121.51 109.07 129.25 108.1 133.91"/>
      <polygon class="cls-1" points="111.09 132.31 107.36 146.65 98.25 143.57 98.25 145.36 92.68 146.65 64.16 142.85 49.15 134.11 34.14 123.04 29.49 112.77 37.06 103.96 53.33 109.14 70.29 120.28 92.41 127.27 107.36 129.22 111.09 132.31"/>
      <polygon class="cls-7" points="104.97 133.91 102.41 141.08 90 141.08 69.61 138 41.09 125.63 33.08 114.81 41.06 107.42 60.28 112.8 79.78 125.3 104.97 133.91"/>
      <polygon class="cls-9" points="124.82 114.42 119.69 103.96 117.21 98.86 119.54 98.08 128 110.6 128 114.81 124.82 114.42"/>
    </g>
  </g>
</svg>