<?xml version="1.0" encoding="UTF-8"?><svg id="a" xmlns="http://www.w3.org/2000/svg" width="39" height="39" viewBox="0 0 39 39"><path d="M28.85,10.17c-1.43-.03-2.51.4-3.46,1.33,0,0,0-2.24,0-4.3v-3.55c0-.12-.1-.22-.22-.22h-4.2c-.12,0-.22.1-.22.22v.26s0,.11,0,.13v9.79s0,10.24,0,10.24c0,.12.1.22.22.22h4.2c.12,0,.22-.1.22-.22v-3.07c0-2.19,0-4.72,0-4.72.05-1.64,1.66-2.2,3.04-1.72.68.23,1,.96,1.12,1.69v7.96s.1.09.22.09h4.2c.12,0,.22-.04.22-.09v-8.07c0-3.11-1.96-5.88-5.35-5.96Z"/><path d="M17.92,27.62h-3.83c-.1,0-.19.06-.22.16l-.09,1.61c-.07.76-.55,1.44-1.28,1.61-1.17.27-2.58.02-2.99-1.26-.36-1.11.01-2.55,1.07-3.08.48-.24,1.04-.31,1.51-.31h5.93c.12.01.23-.09.23-.21v-1.47s0-14.29,0-14.29c0-.24-.3-.57-.51-.57h-2.58c-1.18.01-2.47.92-2.47,2.39,0,.35-.02,8.21-.02,9.63,0,.12-.1.22-.22.22-.2,0-.46,0-.46,0-5.05-.17-7.98,3.7-7,8.55.95,5.18,8.33,6.6,11.71,2.9.86-.93,1.35-2.09,1.52-3.37.04-.32.26-2.51-.29-2.52Z"/><rect x="13.32" y="3.44" width="4.8" height="4.8" rx=".33" ry=".33"/></svg>